<svg xmlns="http://www.w3.org/2000/svg" width="31" height="31" viewBox="0 0 31 31">
  <metadata><?xpacket begin="﻿" id="W5M0MpCehiHzreSzNTczkc9d"?>
<x:xmpmeta xmlns:x="adobe:ns:meta/" x:xmptk="Adobe XMP Core 5.6-c138 79.159824, 2016/09/14-01:09:01        ">
   <rdf:RDF xmlns:rdf="http://www.w3.org/1999/02/22-rdf-syntax-ns#">
      <rdf:Description rdf:about=""/>
   </rdf:RDF>
</x:xmpmeta>
                                                                                                    
                                                                                                    
                                                                                                    
                                                                                                    
                                                                                                    
                                                                                                    
                                                                                                    
                                                                                                    
                                                                                                    
                                                                                                    
                                                                                                    
                                                                                                    
                                                                                                    
                                                                                                    
                                                                                                    
                                                                                                    
                                                                                                    
                                                                                                    
                                                                                                    
                                                                                                    
                           
<?xpacket end="w"?></metadata>
<defs>
    <style>
      .cls-1 {
        fill: #fff;
        fill-rule: evenodd;
        opacity: 0.87;
      }
    </style>
  </defs>
  <path id="earth" class="cls-1" d="M817,925.491A15.509,15.509,0,1,0,832.508,941,15.554,15.554,0,0,0,817,925.491Zm10.7,9.305h-4.5a24.477,24.477,0,0,0-2.171-5.583A12.486,12.486,0,0,1,827.7,934.8Zm-10.7-6.2a20.834,20.834,0,0,1,2.947,6.2h-5.894A22.814,22.814,0,0,1,817,928.593ZM805.059,944.1a10.554,10.554,0,0,1,0-6.2h5.272a20.793,20.793,0,0,0-.155,3.1c0,1.085.155,2.015,0.155,3.1h-5.272Zm1.24,3.1h4.5a24.477,24.477,0,0,0,2.171,5.583A12.486,12.486,0,0,1,806.3,947.2Zm4.5-12.407h-4.5a13.074,13.074,0,0,1,6.669-5.583A24.477,24.477,0,0,0,810.8,934.8Zm6.2,18.61a20.834,20.834,0,0,1-2.947-6.2h5.894A22.814,22.814,0,0,1,817,953.406Zm3.567-9.3h-7.134a15.67,15.67,0,0,1,0-6.2h7.289a21.019,21.019,0,0,1,.31,3.1A21.43,21.43,0,0,1,820.567,944.1Zm0.465,8.685A21.977,21.977,0,0,0,823.2,947.2h4.5A12.486,12.486,0,0,1,821.032,952.786Zm2.792-8.685a20.793,20.793,0,0,0,.155-3.1c0-1.086-.155-2.017-0.155-3.1H829.1a10.554,10.554,0,0,1,0,6.2h-5.272Z" transform="translate(-801.5 -925.5)"/>
</svg>
