<svg xmlns="http://www.w3.org/2000/svg" width="14" height="15.56" viewBox="0 0 14 15.56">
  <metadata><?xpacket begin="﻿" id="W5M0MpCehiHzreSzNTczkc9d"?>
<x:xmpmeta xmlns:x="adobe:ns:meta/" x:xmptk="Adobe XMP Core 5.6-c138 79.159824, 2016/09/14-01:09:01        ">
   <rdf:RDF xmlns:rdf="http://www.w3.org/1999/02/22-rdf-syntax-ns#">
      <rdf:Description rdf:about=""/>
   </rdf:RDF>
</x:xmpmeta>
                                                                                                    
                                                                                                    
                                                                                                    
                                                                                                    
                                                                                                    
                                                                                                    
                                                                                                    
                                                                                                    
                                                                                                    
                                                                                                    
                                                                                                    
                                                                                                    
                                                                                                    
                                                                                                    
                                                                                                    
                                                                                                    
                                                                                                    
                                                                                                    
                                                                                                    
                                                                                                    
                           
<?xpacket end="w"?></metadata>
<defs>
    <style>
      .cls-1 {
        fill: #fff;
        fill-rule: evenodd;
      }
    </style>
  </defs>
  <path id="share_button" class="cls-1" d="M963.732,1056.19a2.193,2.193,0,0,0-1.565.63l-5.552-3.21a1.346,1.346,0,0,0,.078-0.55,2.347,2.347,0,1,0-2.346,2.35,2.151,2.151,0,0,0,1.564-.63l5.552,3.21a1.978,1.978,0,0,0,0,1.1l-5.552,3.28a2.184,2.184,0,0,0-1.564-.62,2.265,2.265,0,1,0,2.268,2.26,1.481,1.481,0,0,0-.079-0.54l5.553-3.29a2.192,2.192,0,0,0,1.564.63,2.308,2.308,0,0,0,2.347-2.35A2.178,2.178,0,0,0,963.732,1056.19Z" transform="translate(-952 -1050.72)"/>
</svg>
