<svg xmlns="http://www.w3.org/2000/svg" width="24" height="24" viewBox="0 0 24 24">
  <metadata><?xpacket begin="﻿" id="W5M0MpCehiHzreSzNTczkc9d"?>
<x:xmpmeta xmlns:x="adobe:ns:meta/" x:xmptk="Adobe XMP Core 5.6-c138 79.159824, 2016/09/14-01:09:01        ">
   <rdf:RDF xmlns:rdf="http://www.w3.org/1999/02/22-rdf-syntax-ns#">
      <rdf:Description rdf:about=""/>
   </rdf:RDF>
</x:xmpmeta>
                                                                                                    
                                                                                                    
                                                                                                    
                                                                                                    
                                                                                                    
                                                                                                    
                                                                                                    
                                                                                                    
                                                                                                    
                                                                                                    
                                                                                                    
                                                                                                    
                                                                                                    
                                                                                                    
                                                                                                    
                                                                                                    
                                                                                                    
                                                                                                    
                                                                                                    
                                                                                                    
                           
<?xpacket end="w"?></metadata>
<defs>
    <style>
      .cls-1 {
        fill: #d32f2f;
        fill-rule: evenodd;
      }
    </style>
  </defs>
  <path id="phone" class="cls-1" d="M448.169,42.167a15.105,15.105,0,0,1-4.8-.8,1.642,1.642,0,0,0-1.334.267L439.1,44.567a20.769,20.769,0,0,1-8.8-8.8l2.934-2.934A1.062,1.062,0,0,0,433.5,31.5a17.936,17.936,0,0,1-.667-4.667A1.26,1.26,0,0,0,431.5,25.5h-4.668A1.261,1.261,0,0,0,425.5,26.83,22.653,22.653,0,0,0,448.169,49.5a1.26,1.26,0,0,0,1.334-1.334V43.5A1.26,1.26,0,0,0,448.169,42.167ZM446.835,37.5H449.5a11.954,11.954,0,0,0-12-12v2.667A9.278,9.278,0,0,1,446.835,37.5Zm-5.334,0h2.667a6.6,6.6,0,0,0-6.668-6.668V33.5A3.93,3.93,0,0,1,441.5,37.5Z" transform="translate(-425.5 -25.5)"/>
</svg>
