<svg xmlns="http://www.w3.org/2000/svg" width="47" height="41" viewBox="0 0 47 41">
  <metadata><?xpacket begin="﻿" id="W5M0MpCehiHzreSzNTczkc9d"?>
<x:xmpmeta xmlns:x="adobe:ns:meta/" x:xmptk="Adobe XMP Core 5.6-c138 79.159824, 2016/09/14-01:09:01        ">
   <rdf:RDF xmlns:rdf="http://www.w3.org/1999/02/22-rdf-syntax-ns#">
      <rdf:Description rdf:about=""/>
   </rdf:RDF>
</x:xmpmeta>
                                                                                                    
                                                                                                    
                                                                                                    
                                                                                                    
                                                                                                    
                                                                                                    
                                                                                                    
                                                                                                    
                                                                                                    
                                                                                                    
                                                                                                    
                                                                                                    
                                                                                                    
                                                                                                    
                                                                                                    
                                                                                                    
                                                                                                    
                                                                                                    
                                                                                                    
                                                                                                    
                           
<?xpacket end="w"?></metadata>
<defs>
    <style>
      .cls-1 {
        fill: #f44336;
        fill-rule: evenodd;
      }
    </style>
  </defs>
  <path id="steak" class="cls-1" d="M968.5,406.1c-3.114,1.56-3.109,5.224-2.67,6.944L966,413.718l0.686-.115c4.542-.758,7.935-3.805,8.894-5.726l0.282-.568-0.506-.38C975.221,406.825,971.913,404.389,968.5,406.1Zm-1.315,5.858c-0.122-1.168-.068-3.466,1.993-4.5a4.161,4.161,0,0,1,1.881-.437,6.121,6.121,0,0,1,2.8.763A12.021,12.021,0,0,1,967.186,411.956ZM984,396.144c0-6.049-3.516-12.152-11.372-12.152-4.355,0-7.71,1.683-11.218,5.628-5.748,6.464-9.351,8.043-18.351,8.043A5.9,5.9,0,0,0,937,403.739c0,0.253.014,0.506,0.036,0.76H937v7.595l0.033,0.224c1.375,4.473,10.467,12.688,21.2,12.688,18.361,0,25.778-13.936,25.778-19.748V396.9h-0.036C983.989,396.64,984,396.383,984,396.144Zm-1.516,9.114c0,5.365-6.981,18.229-24.262,18.229-9.79,0-18.369-7.5-19.712-11.512v-3.029a11.978,11.978,0,0,0,.924,1.344c3.043,3.811,9.377,7.881,18.03,7.881,11.409,0,21.182-6.047,25.02-15.259v2.346Zm-0.725-4.781c-2.983,9.675-12.747,16.174-24.294,16.174-8.117,0-14.024-3.776-16.846-7.31a9.115,9.115,0,0,1-2.109-5.6,4.39,4.39,0,0,1,4.549-4.556c9.436,0,13.442-1.759,19.483-8.553,3.233-3.636,6.155-5.119,10.086-5.119,6.808,0,9.856,5.34,9.856,10.633A20.191,20.191,0,0,1,981.762,400.477Zm-9.131-14.207a9.115,9.115,0,1,0,9.1,9.115A9.117,9.117,0,0,0,972.631,386.27Zm0,16.71a7.6,7.6,0,1,1,7.581-7.6A7.6,7.6,0,0,1,972.631,402.98Zm-10.194-4.43c-0.989-.66-3.71-1.987-7.583-0.048-1.569.787-4.851,1.325-8.781,1.44l0.044,1.519c1.988-.059,6.883-0.331,9.415-1.6,3.163-1.585,5.294-.561,6.064-0.048a6.133,6.133,0,0,1,2.7,5.445c0,2.045-.536,6.958-5.516,8.384-2.789.8-7.567-.6-10.825-2.228-3.1-1.55-6.4-4.381-6.4-7.675,0-.978.314-2.279,3.033-2.279v-1.519c-3.959,0-4.55,2.38-4.55,3.8,0,3.986,3.742,7.28,7.243,9.034a23.583,23.583,0,0,0,9.634,2.614,8.41,8.41,0,0,0,2.286-.284c6.141-1.758,6.617-7.98,6.616-9.846A7.667,7.667,0,0,0,962.437,398.55Zm0.338,6.708a3.791,3.791,0,1,0-3.791,3.8A3.8,3.8,0,0,0,962.775,405.258Zm-6.066,0a2.275,2.275,0,1,1,2.275,2.279A2.279,2.279,0,0,1,956.709,405.258Zm15.922-5.316v1.519a6.078,6.078,0,0,0,6.065-6.076H977.18A4.558,4.558,0,0,1,972.631,399.942ZM951.791,419.8l-0.779,1.3a15.162,15.162,0,0,0,7.3,1.783,16.148,16.148,0,0,0,2.3-.164l-0.215-1.5A14.3,14.3,0,0,1,951.791,419.8ZM962,421.209l0.014,1.519a12.236,12.236,0,0,0,3.272-.8l-0.479-1.441A12.464,12.464,0,0,1,962,421.209Z" transform="translate(-937 -384)"/>
</svg>
